<?xml version="1.0" encoding="utf-8"?>
<!-- Generator: Adobe Illustrator 25.0.0, SVG Export Plug-In . SVG Version: 6.00 Build 0)  -->
<svg version="1.1" id="Layer_1" xmlns="http://www.w3.org/2000/svg" xmlns:xlink="http://www.w3.org/1999/xlink" x="0px" y="0px"
	 viewBox="0 0 32 32" style="enable-background:new 0 0 32 32;" xml:space="preserve">
<style type="text/css">
	.st0{fill:url(#SVGID_1_);}
	.st1{fill:#F57F20;}
	.st2{fill:#FFFFFF;}
	.st3{fill:#37363B;}
</style>
<radialGradient id="SVGID_1_" cx="16" cy="16" r="15.1656" gradientUnits="userSpaceOnUse">
	<stop  offset="4.393892e-07" style="stop-color:#F57F20"/>
	<stop  offset="0.3994" style="stop-color:#F07D21"/>
	<stop  offset="0.5433" style="stop-color:#E57925"/>
	<stop  offset="0.6459" style="stop-color:#D6742A"/>
	<stop  offset="0.7289" style="stop-color:#C16D30"/>
	<stop  offset="0.7999" style="stop-color:#A96436"/>
	<stop  offset="0.8628" style="stop-color:#8C593B"/>
	<stop  offset="0.9197" style="stop-color:#6C4D3D"/>
	<stop  offset="0.9702" style="stop-color:#4C3F3D"/>
	<stop  offset="1" style="stop-color:#37363B"/>
</radialGradient>
<path class="st0" d="M16,31.17L16,31.17C7.62,31.17,0.83,24.38,0.83,16v0C0.83,7.62,7.62,0.83,16,0.83h0
	c8.38,0,15.17,6.79,15.17,15.17v0C31.17,24.38,24.38,31.17,16,31.17z"/>
<path class="st1" d="M16,29.94L16,29.94C8.3,29.94,2.06,23.7,2.06,16v0C2.06,8.3,8.3,2.06,16,2.06h0c7.7,0,13.94,6.24,13.94,13.94v0
	C29.94,23.7,23.7,29.94,16,29.94z"/>
<polygon class="st2" points="15.93,12.22 15.93,14.94 13.74,12.75 13.74,10.27 "/>
<polygon class="st2" points="15.93,15.82 15.93,21.66 13.74,23.24 13.74,13.64 "/>
<polygon class="st3" points="13.3,13.2 13.3,16.29 10.9,13.89 10.9,23.24 8.71,24.3 8.71,8.61 "/>
<polygon class="st3" points="20.95,4.75 20.95,23.94 16.37,19.36 16.37,16.27 18.76,18.66 18.76,6.95 "/>
</svg>
